<svg width="20" height="20" viewBox="0 0 20 20" fill="none" xmlns="http://www.w3.org/2000/svg">
<path d="M15.833 15.833L10.1168 10.2745C10.0797 10.2384 10.0502 10.1956 10.0301 10.1484C10.01 10.1013 9.99967 10.0507 9.99967 9.99967C9.99967 9.94865 10.01 9.8981 10.0301 9.85091C10.0502 9.80378 10.0797 9.76095 10.1168 9.72486L15.833 4.16634" stroke="#2F2F2F" stroke-width="1.66667" stroke-linecap="round" stroke-linejoin="round"/>
<path d="M4.16699 15.833L9.88316 10.2745C9.92028 10.2384 9.94977 10.1956 9.96987 10.1484C9.98998 10.1013 10.0003 10.0507 10.0003 9.99967C10.0003 9.94865 9.98998 9.8981 9.96987 9.85091C9.94977 9.80378 9.92028 9.76095 9.88316 9.72486L4.16699 4.16634" stroke="#2F2F2F" stroke-width="1.66667" stroke-linecap="round" stroke-linejoin="round"/>
</svg>
